<?xml version="1.0" encoding="UTF-8"?>
<!-- Generator: visioncortex VTracer 0.6.4 -->
<svg version="1.1" xmlns="http://www.w3.org/2000/svg" width="512" height="512">
<path d="M0,0 L18,0 L35,3 L50,8 L63,15 L75,24 L83,31 L92,42 L100,53 L108,69 L108,71 L129,72 L147,75 L167,81 L183,88 L199,98 L212,110 L220,118 L227,128 L235,143 L239,154 L242,170 L242,195 L238,213 L233,227 L224,244 L218,253 L220,259 L228,275 L235,296 L238,312 L239,321 L239,341 L236,360 L230,378 L222,393 L214,403 L209,409 L201,416 L188,425 L173,432 L156,437 L143,439 L113,439 L106,450 L97,462 L88,472 L78,482 L63,493 L49,501 L31,508 L18,511 L10,512 L-8,512 L-25,509 L-40,504 L-53,497 L-65,488 L-73,481 L-82,470 L-90,459 L-98,443 L-98,441 L-119,440 L-137,437 L-157,431 L-173,424 L-189,414 L-202,402 L-211,393 L-220,379 L-226,366 L-230,353 L-232,342 L-232,317 L-228,299 L-223,285 L-214,268 L-208,259 L-210,253 L-218,237 L-225,216 L-228,200 L-229,191 L-229,171 L-226,152 L-220,134 L-212,119 L-204,109 L-199,103 L-191,96 L-178,87 L-163,80 L-146,75 L-133,73 L-103,73 L-96,62 L-87,50 L-78,40 L-68,30 L-53,19 L-39,11 L-21,4 L-8,1 Z M-39,63 L-61,67 L-85,75 L-87,77 L-63,85 L-46,93 L-35,100 L-60,102 L-82,107 L-98,113 L-114,121 L-127,129 L-140,139 L-155,153 L-164,164 L-173,177 L-181,191 L-189,210 L-195,232 L-196,245 L-188,239 L-177,229 L-160,218 L-150,213 L-158,228 L-164,244 L-168,259 L-171,279 L-171,308 L-168,328 L-162,349 L-153,370 L-144,385 L-134,398 L-125,408 L-115,418 L-106,425 L-104,424 L-108,406 L-110,389 L-111,368 L-109,368 L-107,373 L-100,384 L-91,395 L-76,410 L-66,418 L-52,427 L-37,435 L-21,441 L-4,446 L15,449 L49,449 L71,445 L95,437 L97,435 L73,427 L56,419 L45,412 L70,410 L92,405 L108,399 L124,391 L137,383 L150,373 L165,359 L174,348 L183,335 L191,321 L199,302 L205,280 L206,267 L198,273 L187,283 L170,294 L160,299 L168,284 L174,268 L178,253 L181,233 L181,204 L178,184 L172,163 L163,142 L154,127 L144,114 L135,104 L125,94 L116,87 L114,88 L118,106 L120,123 L121,144 L119,144 L117,139 L110,128 L99,115 L86,102 L76,94 L62,85 L47,77 L31,71 L18,67 L3,64 L-5,63 Z " fill="#000000" transform="translate(251,0)"/>
<path d="M0,0 L10,0 L27,3 L40,8 L51,14 L61,22 L68,28 L79,42 L89,59 L96,78 L99,90 L98,94 L87,83 L73,73 L58,65 L41,59 L23,55 L12,54 L-4,54 L-25,57 L-41,62 L-53,67 L-64,73 L-75,81 L-85,90 L-88,93 L-90,93 L-86,76 L-80,61 L-74,49 L-64,35 L-55,25 L-41,14 L-26,6 L-13,2 Z " fill="#000000" transform="translate(252,109)"/>
<path d="M0,0 L10,2 L23,7 L35,15 L43,22 L51,33 L56,44 L58,53 L58,66 L55,78 L49,89 L41,99 L29,108 L15,115 L2,119 L-1,118 L8,108 L16,94 L21,81 L23,71 L24,57 L22,40 L17,25 L9,11 L0,1 Z " fill="#000000" transform="translate(263,189)"/>
<path d="M0,0 L1,4 L-2,18 L-3,25 L-3,50 L0,67 L5,83 L14,102 L22,114 L31,125 L41,135 L53,144 L67,152 L83,159 L94,162 L95,164 L77,169 L63,171 L38,171 L22,168 L10,164 L-6,156 L-19,146 L-26,138 L-33,128 L-39,115 L-43,99 L-44,85 L-42,67 L-37,51 L-33,42 L-26,29 L-17,17 L-6,5 Z " fill="#000000" transform="translate(160,204)"/>
<path d="M0,0 L0,3 L-7,10 L-14,21 L-20,34 L-23,46 L-24,54 L-24,68 L-21,84 L-16,97 L-9,109 L-1,118 L-5,119 L-20,114 L-35,105 L-42,99 L-51,87 L-56,77 L-58,68 L-58,52 L-54,39 L-48,29 L-39,19 L-30,12 L-14,4 Z " fill="#000000" transform="translate(253,204)"/>
<path d="M0,0 L6,4 L18,17 L28,32 L36,48 L41,63 L43,73 L44,89 L42,105 L37,120 L30,133 L21,144 L12,152 L-1,160 L-15,166 L-31,170 L-39,171 L-60,171 L-79,168 L-95,163 L-93,161 L-77,156 L-60,148 L-48,140 L-35,129 L-24,117 L-14,102 L-6,86 L-1,72 L3,54 L4,42 L4,30 L2,12 L0,4 Z " fill="#000000" transform="translate(352,205)"/>
</svg>
